<?xml version="1.0" standalone="no"?>
<!DOCTYPE svg PUBLIC "-//W3C//DTD SVG 20010904//EN"
 "http://www.w3.org/TR/2001/REC-SVG-20010904/DTD/svg10.dtd">
<svg version="1.0" xmlns="http://www.w3.org/2000/svg"
 width="512.000000pt" height="512.000000pt" viewBox="0 0 512.000000 512.000000"
 preserveAspectRatio="xMidYMid meet">

<g transform="translate(0.000000,512.000000) scale(0.100000,-0.100000)"
fill="#000000" stroke="none">
<path d="M400 4867 c-49 -16 -133 -102 -148 -153 -18 -60 -18 -4248 0 -4308
16 -55 99 -138 154 -154 60 -18 4248 -18 4308 0 55 16 138 99 154 154 18 60
18 4248 0 4308 -16 55 -99 138 -154 154 -57 17 -4261 16 -4314 -1z m4295 -172
l25 -24 0 -456 0 -455 -2160 0 -2160 0 0 455 0 456 25 24 24 25 2111 0 2111 0
24 -25z m25 -2670 l0 -1576 -25 -24 -24 -25 -2111 0 -2111 0 -24 25 -25 24 0
1576 0 1575 2160 0 2160 0 0 -1575z"/>
<path d="M720 4547 c-49 -16 -133 -102 -148 -153 -16 -53 -16 -255 0 -308 16
-55 99 -138 154 -154 25 -7 103 -12 193 -12 148 0 153 1 176 25 16 15 25 36
25 55 0 19 -9 40 -25 55 -23 24 -28 25 -175 25 -147 0 -152 1 -175 25 -24 23
-25 31 -25 135 0 104 1 112 25 135 l24 25 1071 0 1071 0 24 -25 c24 -23 25
-31 25 -135 0 -104 -1 -112 -25 -135 l-24 -25 -631 0 -631 0 -24 -25 c-33 -32
-33 -78 0 -110 l24 -25 632 0 c467 0 642 3 673 12 55 16 138 99 154 154 7 23
12 92 12 154 0 62 -5 131 -12 154 -16 55 -99 138 -154 154 -56 16 -2181 16
-2234 -1z"/>
<path d="M3375 4386 c-103 -45 -126 -180 -44 -258 63 -60 149 -63 214 -7 134
118 -6 337 -170 265z"/>
<path d="M3855 4386 c-103 -45 -126 -180 -44 -258 63 -60 149 -63 214 -7 134
118 -6 337 -170 265z"/>
<path d="M4335 4386 c-103 -45 -126 -180 -44 -258 63 -60 149 -63 214 -7 134
118 -6 337 -170 265z"/>
<path d="M1305 4055 c-50 -49 -15 -135 55 -135 41 0 80 39 80 80 0 41 -39 80
-80 80 -19 0 -40 -9 -55 -25z"/>
<path d="M2440 3419 c-101 -46 -132 -100 -162 -282 l-22 -134 -85 -37 c-47
-21 -93 -39 -101 -39 -8 -1 -64 34 -123 77 -101 73 -170 106 -222 106 -49 0
-124 -32 -169 -71 -64 -56 -97 -116 -103 -187 -7 -75 12 -119 111 -256 52 -72
71 -107 65 -117 -4 -8 -23 -51 -40 -95 l-32 -82 -106 -16 c-197 -32 -258 -62
-303 -149 -25 -50 -35 -164 -19 -223 30 -112 107 -162 299 -193 129 -21 142
-25 142 -44 0 -7 16 -48 35 -91 l34 -79 -74 -102 c-102 -142 -109 -158 -109
-235 0 -77 16 -115 83 -183 64 -67 112 -90 186 -90 72 0 120 22 250 117 49 37
94 64 100 62 5 -3 48 -20 95 -40 l85 -35 22 -128 c29 -164 44 -204 98 -251 52
-46 100 -62 186 -62 88 0 129 14 182 60 56 50 71 88 100 253 l22 128 85 35
c47 19 90 37 95 40 6 2 56 -27 110 -67 140 -99 168 -112 240 -112 141 0 269
127 269 268 -1 72 -14 101 -113 240 -40 54 -69 104 -67 110 3 5 21 48 40 95
l35 85 133 22 c153 26 196 42 242 93 52 57 69 115 64 209 -4 66 -10 88 -34
128 -47 75 -97 100 -265 130 l-144 26 -33 81 c-18 45 -35 88 -38 96 -3 8 26
59 66 115 100 139 113 168 114 240 0 141 -128 268 -269 268 -71 0 -92 -9 -235
-110 -57 -40 -109 -71 -115 -69 -5 3 -48 21 -95 40 l-85 35 -22 133 c-25 150
-35 178 -77 227 -69 78 -223 107 -326 60z m200 -159 c23 -23 24 -27 50 -195
29 -183 35 -192 140 -225 47 -15 116 -43 153 -63 65 -34 71 -36 101 -23 18 8
89 55 158 105 86 62 134 91 153 91 36 0 115 -77 115 -112 0 -14 -19 -51 -42
-84 -118 -167 -158 -230 -158 -251 0 -13 16 -56 37 -96 20 -39 46 -103 57
-141 30 -96 40 -102 236 -135 191 -33 200 -38 200 -127 0 -41 -5 -59 -22 -79
-21 -23 -41 -29 -190 -54 -115 -19 -174 -33 -187 -45 -11 -10 -29 -50 -41 -89
-12 -39 -37 -102 -56 -139 -56 -110 -53 -119 90 -302 73 -94 84 -144 42 -193
-34 -41 -79 -59 -111 -45 -13 6 -73 47 -133 91 -60 45 -126 88 -145 96 -34 14
-37 13 -126 -30 -50 -25 -117 -52 -149 -61 -88 -24 -94 -36 -126 -225 -33
-198 -39 -209 -128 -209 -44 0 -63 5 -78 20 -23 23 -22 20 -54 208 -13 79 -30
152 -38 163 -7 12 -55 36 -113 58 -55 21 -119 48 -142 59 -77 40 -93 34 -287
-106 -60 -44 -108 -72 -123 -72 -32 0 -113 78 -113 109 0 29 8 44 95 165 81
114 105 156 105 183 0 9 -18 53 -39 98 -22 44 -47 107 -55 139 -23 90 -29 93
-222 127 -150 25 -171 31 -191 54 -17 20 -23 39 -23 75 0 36 6 55 23 75 20 23
41 29 190 54 111 19 175 35 187 46 10 9 28 49 40 88 12 39 40 107 62 150 48
97 50 91 -74 263 -48 67 -90 133 -93 146 -8 30 28 85 74 112 44 26 58 20 203
-86 160 -117 157 -117 268 -63 50 25 116 52 148 61 94 27 91 23 127 237 32
185 39 197 127 197 44 0 63 -5 78 -20z"/>
<path d="M2422 2625 c-338 -74 -559 -418 -487 -759 61 -288 330 -506 625 -506
236 0 464 141 568 351 95 193 95 388 0 579 -128 256 -423 396 -706 335z m253
-160 c256 -67 415 -329 350 -578 -45 -173 -178 -307 -350 -352 -251 -65 -513
94 -580 350 -89 343 237 669 580 580z"/>
</g>
</svg>
