<svg xmlns="http://www.w3.org/2000/svg" xmlns:xlink="http://www.w3.org/1999/xlink" viewBox="0 0 50 50"><defs><style>.a,.c{fill:#1d1e1e;}.b{clip-path:url(#a);}.c{isolation:isolate;opacity:0.75;}.d{fill:#fff;}</style><clipPath id="a"><circle class="a" cx="25.04" cy="25" r="24.01"/></clipPath></defs><circle class="a" cx="25.04" cy="25" r="24.01"/><g class="b"><polygon class="a" points="3.94 49.01 1.03 40.59 1.03 0.99 46.14 0.99 49.05 9.41 49.05 49.01 3.94 49.01"/></g><path class="a" d="M25,50A25,25,0,1,1,50,25,25,25,0,0,1,25,50ZM25,2A23.06,23.06,0,1,0,48.1,25.02V25A23.091,23.091,0,0,0,25,1.94Z"/><path class="c" d="M19.2,14.77h-1a5.72,5.72,0,0,0-1.56.35,27.44,27.44,0,0,1,7.77,34.81L25,50A25,25,0,0,0,49.35,30.64C41.83,21.83,31.64,14.78,19.2,14.77Z"/><path class="c" d="M16.61,15.13C13.13,16.3,6.48,20.42.1,25.94a25,25,0,0,0,24.28,24A27.44,27.44,0,0,0,16.61,15.13Z"/><path class="d" d="M25.73,10.5a1,1,0,0,0-.53.1c-2.15,1.08,0,5.38,0,5.38-6.45,5.37-5.08,14.56-12.61,14.56-4.11,0-8.19-4.72-12.49-7.6A14.077,14.077,0,0,0,0,25,25.109,25.109,0,0,0,12.85,46.91,13.879,13.879,0,0,0,18.74,45c8.45-5.63,10.55-16.34,14-21.52,2.15-3.23,12.22-3,12.9-4.31,1.07-2.15-2.15-5.37-3.23-5.37H33.8c-.6,0-1.54-1.07-2.14-1.07H28.43S27,10.59,25.73,10.5Z"/></svg>