<?xml version="1.0" standalone="no"?>
<!DOCTYPE svg PUBLIC "-//W3C//DTD SVG 20010904//EN"
 "http://www.w3.org/TR/2001/REC-SVG-20010904/DTD/svg10.dtd">
<svg version="1.0" xmlns="http://www.w3.org/2000/svg"
 width="512.000000pt" height="512.000000pt" viewBox="0 0 512.000000 512.000000"
 preserveAspectRatio="xMidYMid meet">

<g transform="translate(0.000000,512.000000) scale(0.100000,-0.100000)"
fill="#000000" stroke="none">
<path d="M466 4709 c-62 -15 -153 -68 -197 -116 -22 -24 -55 -74 -72 -111
l-32 -67 0 -1456 0 -1455 37 -76 c45 -91 103 -147 196 -191 l67 -32 693 -3
c380 -1 692 -5 692 -8 0 -4 -55 -113 -121 -244 -130 -255 -142 -293 -119 -375
15 -55 69 -118 124 -148 l41 -22 755 -3 c525 -2 771 0 806 8 99 21 184 128
184 232 0 41 -18 83 -128 302 l-127 255 695 3 696 3 76 38 c116 57 191 152
217 275 16 75 16 2809 0 2884 -26 123 -101 218 -217 275 l-76 38 -2075 2
c-1231 0 -2092 -3 -2115 -8z m2334 -1509 l0 -1360 -1240 0 -1240 0 0 1256 c0
958 3 1266 12 1298 15 51 99 137 148 153 25 8 375 11 1178 12 l1142 1 0 -1360z
m1834 1348 c55 -16 138 -99 154 -154 9 -32 12 -340 12 -1298 l0 -1256 -920 0
-920 0 0 1360 0 1360 816 0 c612 0 827 -3 858 -12z m166 -2924 c0 -31 -5 -75
-12 -98 -16 -55 -99 -138 -154 -154 -60 -18 -4088 -18 -4148 0 -55 16 -138 99
-154 154 -7 23 -12 67 -12 98 l0 56 2240 0 2240 0 0 -56z m-1578 -699 c76
-148 138 -280 138 -291 0 -12 -12 -33 -26 -48 l-27 -26 -749 0 -749 0 -24 25
c-14 13 -25 36 -25 50 0 14 62 147 138 295 l137 270 525 -3 525 -2 137 -270z"/>
<path d="M655 4306 c-41 -18 -83 -69 -90 -109 -3 -18 -5 -226 -3 -463 l3 -431
29 -37 c53 -70 -4 -67 1020 -64 916 3 925 3 952 24 15 11 37 33 48 48 20 27
21 41 24 471 3 495 4 490 -64 541 l-37 29 -926 2 c-755 2 -932 0 -956 -11z
m1825 -546 l0 -400 -880 0 -880 0 0 400 0 400 880 0 880 0 0 -400z"/>
<path d="M655 3026 c-41 -18 -83 -69 -90 -109 -3 -18 -5 -190 -3 -383 l3 -351
29 -37 c50 -67 54 -67 461 -64 349 3 365 4 391 24 15 11 37 33 48 48 20 26 21
42 24 391 3 407 3 411 -64 461 l-37 29 -366 2 c-289 2 -372 0 -396 -11z m705
-466 l0 -320 -320 0 -320 0 0 320 0 320 320 0 320 0 0 -320z"/>
<path d="M1775 3026 c-41 -18 -83 -69 -90 -109 -3 -18 -5 -190 -3 -383 l3
-351 29 -37 c50 -67 54 -67 461 -64 349 3 365 4 391 24 15 11 37 33 48 48 20
26 21 42 24 391 3 407 3 411 -64 461 l-37 29 -366 2 c-289 2 -372 0 -396 -11z
m705 -466 l0 -320 -320 0 -320 0 0 320 0 320 320 0 320 0 0 -320z"/>
<path d="M3397 4228 c-9 -7 -75 -91 -147 -187 -90 -122 -130 -182 -130 -201 0
-19 40 -79 130 -201 72 -96 138 -180 147 -186 27 -21 72 -15 98 12 45 44 35
68 -85 228 l-110 147 110 147 c120 160 130 184 85 228 -26 27 -71 33 -98 13z"/>
<path d="M3871 4222 c-18 -14 -39 -82 -106 -352 -47 -184 -85 -345 -85 -358 0
-32 43 -72 78 -72 63 0 67 10 157 370 47 184 85 345 85 358 0 57 -83 92 -129
54z"/>
<path d="M4185 4215 c-45 -44 -35 -68 85 -228 l110 -147 -110 -147 c-120 -160
-130 -184 -85 -228 26 -27 71 -33 98 -12 9 6 75 90 147 186 90 122 130 182
130 201 0 19 -40 79 -130 201 -72 96 -138 180 -147 187 -27 20 -72 14 -98 -13z"/>
<path d="M3225 3015 c-16 -15 -25 -36 -25 -55 0 -19 9 -40 25 -55 l24 -25 631
0 631 0 24 25 c16 15 25 36 25 55 0 19 -9 40 -25 55 l-24 25 -631 0 -631 0
-24 -25z"/>
<path d="M3225 2615 c-16 -15 -25 -36 -25 -55 0 -19 9 -40 25 -55 l24 -25 631
0 631 0 24 25 c16 15 25 36 25 55 0 19 -9 40 -25 55 l-24 25 -631 0 -631 0
-24 -25z"/>
<path d="M3225 2215 c-16 -15 -25 -36 -25 -55 0 -19 9 -40 25 -55 l24 -25 631
0 631 0 24 25 c16 15 25 36 25 55 0 19 -9 40 -25 55 l-24 25 -631 0 -631 0
-24 -25z"/>
</g>
</svg>
