<svg height="1664" viewBox="0 0 2013 1664" width="2013" xmlns="http://www.w3.org/2000/svg"><path d="m2013 832q0 56-37 98l-597 683q-21 24-51 37-30 13-62 14h-1117q-31 0-58-12-27-12-47-32-20-20-32-47-12-27-12-59 0-56 37-98l511-584-511-584q-37-42-37-98 0-31 11-58 11-27 32-48 21-21 48-32 27-11 58-12h1117q32 0 62 13 30 13 51 38l597 683q37 42 37 98zm-1380-97 527-607h-1011q-9 0-15 6-6 6-6 16 0 6 5 13zm-484 801h477l948-1067-271-310q-292 336-584 671-292 335-586 671-5 7-5 13 0 9 6 15 6 6 15 7zm1736-704q0-7-5-14l-221-252-862 970h469q9 0 16-7l598-683q5-7 5-14z"/></svg>