<svg height="2024" viewBox="0 0 2044 2024" width="2044" xmlns="http://www.w3.org/2000/svg"><path d="m2044 1013q0 26-8 50-8 24-26 44l-709 862q-22 26-51 40-29 14-64 15-33 0-58-12-25-12-47-32-22-20-39-44-17-24-37-47-19 24-36 47-17 23-36 42-19 19-44 30-25 11-59 12-34 0-65-15-31-15-52-41l-681-859q-32-40-32-93 0-25 8-49 8-24 24-44l681-858q21-27 51-42 30-15 66-15 33 0 58 11 25 11 44 30 19 19 37 42 18 23 36 48 19-23 37-47 18-24 39-43 21-19 46-32 25-13 59-13 34 0 63 14 29 14 52 41l408 496 301 366q34 42 34 96zm-1179-499q0 6 5 13l316 384 294-358q8-10 17-18 9-8 21-14l-316-384q-6-8-16-8-10 0-16 8l-300 363q-5 7-5 14zm57 1274-151-183q-34-40-34-95 0-26 8-50 8-24 26-45l321-389q4-5 4-14 0-8-4-13l-321-390q-34-42-34-95 0-53 34-95l151-183-75-96q-6-7-17-7-11 0-17 7l-680 859q-5 7-5 13 0 5 1 7 1 2 4 6l680 859q6 8 17 8 11 0 17-8zm596-284q-22-14-38-33l-294-358-316 384q-5 7-5 14 0 6 5 13l300 364q6 8 16 8 10 0 16-8zm398-494q0-2-1-5-1-3-4-6l-300-365q-6-7-15-7-11 0-17 8l-299 364q-5 7-5 13 0 7 5 14l299 363q6 8 16 8 11 0 17-8l299-363q5-6 5-16z"/></svg>