<?xml version="1.0" standalone="no"?>
<!DOCTYPE svg PUBLIC "-//W3C//DTD SVG 20010904//EN"
 "http://www.w3.org/TR/2001/REC-SVG-20010904/DTD/svg10.dtd">
<svg version="1.0" xmlns="http://www.w3.org/2000/svg"
 width="512.000000pt" height="512.000000pt" viewBox="0 0 512.000000 512.000000"
 preserveAspectRatio="xMidYMid meet">

<g transform="translate(0.000000,512.000000) scale(0.100000,-0.100000)"
fill="#000000" stroke="none">
<path d="M565 4631 c-90 -22 -172 -90 -215 -176 l-25 -50 0 -1685 0 -1685 23
-45 c35 -72 75 -114 144 -151 l63 -34 392 0 c380 0 392 1 419 21 53 39 69 71
69 134 0 63 -16 95 -69 134 -26 20 -42 21 -377 24 l-349 3 0 1599 0 1600 608
0 607 0 305 -306 c168 -168 319 -312 337 -320 27 -12 194 -14 1008 -14 l975 0
0 -1279 0 -1279 -109 -4 c-118 -3 -141 -12 -185 -72 -29 -39 -29 -133 0 -172
48 -65 61 -69 227 -69 l152 0 63 34 c70 38 100 69 140 145 l27 51 0 1685 0
1685 -34 63 c-37 69 -79 109 -151 144 l-45 23 -1985 2 c-1092 0 -1998 -2
-2015 -6z m3915 -471 l0 -160 -928 0 -927 0 -160 160 -160 160 1088 0 1087 0
0 -160z"/>
<path d="M1055 3986 c-101 -44 -125 -178 -46 -257 112 -113 296 -12 267 146
-18 94 -131 151 -221 111z"/>
<path d="M1695 3986 c-101 -44 -125 -178 -46 -257 112 -113 296 -12 267 146
-18 94 -131 151 -221 111z"/>
<path d="M2372 3025 c-236 -43 -436 -147 -603 -314 -201 -201 -313 -453 -326
-737 -15 -324 98 -617 327 -844 372 -371 939 -433 1388 -153 l74 46 266 -266
c288 -286 291 -289 379 -272 49 9 109 69 118 118 17 88 14 91 -272 379 l-266
266 46 74 c279 446 218 1012 -147 1383 -172 174 -371 278 -613 320 -103 18
-271 18 -371 0z m378 -328 c100 -28 168 -57 242 -106 367 -240 476 -718 248
-1088 -270 -439 -881 -512 -1245 -148 -265 266 -309 686 -105 999 123 188 307
310 535 355 67 13 257 6 325 -12z"/>
<path d="M2813 2381 c-53 -25 -69 -50 -198 -309 l-99 -201 -96 93 c-68 68
-106 97 -135 106 -116 34 -229 -79 -195 -195 9 -32 50 -78 193 -224 100 -101
196 -189 214 -197 64 -28 133 -13 180 38 11 12 98 177 192 366 123 246 171
353 171 378 0 119 -120 195 -227 145z"/>
</g>
</svg>
